<?xml version="1.0" encoding="UTF-8" standalone="no"?>
<svg
   width="1200"
   height="360"
   viewBox="0 0 1200 360"
   version="1.1"
   id="svg6"
   sodipodi:docname="download.svg"
   inkscape:version="1.4.3 (0d15f75, 2025-12-25)"
   xmlns:inkscape="http://www.inkscape.org/namespaces/inkscape"
   xmlns:sodipodi="http://sodipodi.sourceforge.net/DTD/sodipodi-0.dtd"
   xmlns="http://www.w3.org/2000/svg"
   xmlns:svg="http://www.w3.org/2000/svg">
  <defs
     id="defs6" />
  <sodipodi:namedview
     id="namedview6"
     pagecolor="#505050"
     bordercolor="#eeeeee"
     borderopacity="1"
     inkscape:showpageshadow="0"
     inkscape:pageopacity="0"
     inkscape:pagecheckerboard="0"
     inkscape:deskcolor="#505050"
     inkscape:zoom="0.73333333"
     inkscape:cx="600"
     inkscape:cy="-147.95455"
     inkscape:window-width="1024"
     inkscape:window-height="1186"
     inkscape:window-x="0"
     inkscape:window-y="31"
     inkscape:window-maximized="0"
     inkscape:current-layer="svg6" />
  <g
     fill="none"
     stroke="black"
     stroke-linecap="round"
     stroke-linejoin="round"
     id="g5">
    <path
       style="baseline-shift:baseline;display:inline;overflow:visible;vector-effect:none;fill:#000000;stroke:none;stroke-linecap:butt;stroke-linejoin:miter;enable-background:accumulate;stop-color:#000000;stop-opacity:1;opacity:1"
       d="M 110,33 C 67.463081,33 33,67.463081 33,110 v 140 c 0,42.53692 34.463081,77 77,77 h 980 c 42.5369,0 77,-34.46308 77,-77 V 110 c 0,-42.536919 -34.4631,-77 -77,-77 z m 0,14 h 980 c 35.0231,0 63,27.976919 63,63 v 140 c 0,35.02308 -27.9769,63 -63,63 H 110 C 74.976919,313 47,285.02308 47,250 V 110 C 47,74.976919 74.976919,47 110,47 Z"
       id="rect1" />
    <path
       style="baseline-shift:baseline;display:inline;overflow:visible;vector-effect:none;fill:#000000;stroke:none;stroke-linecap:butt;stroke-linejoin:miter;enable-background:accumulate;stop-color:#000000;stop-opacity:1;opacity:1"
       d="m 136,102 c -17.62422,0 -32,14.37578 -32,32 v 68 c 0,17.62422 14.37578,32 32,32 h 68 c 17.62422,0 32,-14.37578 32,-32 v -68 c 0,-17.62422 -14.37578,-32 -32,-32 z m 0,12 h 68 c 11.18378,0 20,8.81622 20,20 v 68 c 0,11.18378 -8.81622,20 -20,20 h -68 c -11.18378,0 -20,-8.81622 -20,-20 v -68 c 0,-11.18378 8.81622,-20 20,-20 z"
       id="rect2" />
    <path
       style="baseline-shift:baseline;display:inline;overflow:visible;vector-effect:none;fill:#000000;stroke:none;stroke-linecap:butt;stroke-linejoin:miter;enable-background:accumulate;stop-color:#000000;stop-opacity:1;opacity:1"
       d="m 145,162 a 6,6 0 0 0 -6,6 6,6 0 0 0 6,6 h 50 a 6,6 0 0 0 6,-6 6,6 0 0 0 -6,-6 z"
       id="path2" />
    <path
       style="baseline-shift:baseline;display:inline;overflow:visible;vector-effect:none;fill:#000000;stroke:none;stroke-linecap:butt;stroke-linejoin:miter;enable-background:accumulate;stop-color:#000000;stop-opacity:1;opacity:1"
       d="m 170,137 a 6,6 0 0 0 -6,6 v 50 a 6,6 0 0 0 6,6 6,6 0 0 0 6,-6 v -50 a 6,6 0 0 0 -6,-6 z"
       id="path3" />
    <circle
       cx="1030"
       cy="150"
       r="16"
       fill="black"
       stroke="none"
       id="circle3" />
    <circle
       cx="1072"
       cy="186"
       r="16"
       fill="black"
       stroke="none"
       id="circle4" />
    <path
       d="M560 78              C545 63, 520 64, 512 86              C533 91, 550 99, 565 113              C571 103, 575 91, 560 78Z"
       fill="black"
       stroke="none"
       id="path4" />
    <path
       d="M640 78              C655 63, 680 64, 688 86              C667 91, 650 99, 635 113              C629 103, 625 91, 640 78Z"
       fill="black"
       stroke="none"
       id="path5" />
    <circle
       cx="600"
       cy="95"
       r="9"
       fill="black"
       stroke="none"
       id="circle5" />
  </g>
  <path
     d="m 476.83545,119.63184 h -13.71973 v 7.38281 h 12.63282 q 1.39453,0 2.07128,0.63574 0.69727,0.61523 0.69727,1.64063 0,1.02539 -0.67676,1.68164 -0.67676,0.63574 -2.09179,0.63574 h -12.63282 v 8.55176 h 14.19141 q 1.43555,0 2.15332,0.67675 0.73828,0.65625 0.73828,1.76368 0,1.0664 -0.73828,1.74316 Q 478.74268,145 477.30713,145 h -16.54981 q -1.98925,0 -2.87109,-0.88184 -0.86133,-0.88183 -0.86133,-2.85058 v -22.59961 q 0,-1.3125 0.38965,-2.13281 0.38965,-0.84082 1.20996,-1.20996 0.84082,-0.38965 2.13281,-0.38965 h 16.07813 q 1.45605,0 2.15332,0.65625 0.71777,0.63574 0.71777,1.68164 0,1.0664 -0.71777,1.72265 -0.69727,0.63575 -2.15332,0.63575 z m 23.35449,20.83593 -4.81933,-19.15429 v 20.7539 q 0,1.72266 -0.7793,2.58399 -0.75879,0.86133 -2.03027,0.86133 -1.23047,0 -2.00977,-0.84083 -0.7793,-0.86132 -0.7793,-2.60449 v -23.78906 q 0,-1.96875 1.02539,-2.64551 1.02539,-0.69726 2.76856,-0.69726 h 1.88672 q 1.70215,0 2.46093,0.30761 0.7793,0.30762 1.14844,1.10743 0.36914,0.7998 0.84082,2.60449 l 4.36817,16.46777 4.36816,-16.46777 q 0.47168,-1.80469 0.84082,-2.60449 0.36914,-0.79981 1.12793,-1.10743 0.7793,-0.30761 2.48145,-0.30761 h 1.88671 q 1.74317,0 2.76856,0.69726 1.02539,0.67676 1.02539,2.64551 v 23.78906 q 0,1.72266 -0.7793,2.58399 -0.75879,0.86133 -2.05078,0.86133 -1.20996,0 -1.98926,-0.86133 -0.77929,-0.86133 -0.77929,-2.58399 v -20.7539 l -4.81934,19.15429 q -0.47168,1.86621 -0.7793,2.74805 -0.28711,0.86133 -1.08691,1.5791 -0.7998,0.71778 -2.21484,0.71778 -1.06641,0 -1.80469,-0.47168 -0.73828,-0.45118 -1.14844,-1.16895 -0.41016,-0.71777 -0.65625,-1.5791 -0.22558,-0.88184 -0.47168,-1.8252 z m 49.64551,-20.83593 h -13.71973 v 7.38281 h 12.63282 q 1.39453,0 2.07128,0.63574 0.69727,0.61523 0.69727,1.64063 0,1.02539 -0.67676,1.68164 -0.67676,0.63574 -2.09179,0.63574 h -12.63282 v 8.55176 h 14.19141 q 1.43555,0 2.15332,0.67675 0.73828,0.65625 0.73828,1.76368 0,1.0664 -0.73828,1.74316 Q 551.74268,145 550.30713,145 h -16.54981 q -1.98925,0 -2.87109,-0.88184 -0.86133,-0.88183 -0.86133,-2.85058 v -22.59961 q 0,-1.3125 0.38965,-2.13281 0.38965,-0.84082 1.20996,-1.20996 0.84082,-0.38965 2.13281,-0.38965 h 16.07813 q 1.45605,0 2.15332,0.65625 0.71777,0.63574 0.71777,1.68164 0,1.0664 -0.71777,1.72265 -0.69727,0.63575 -2.15332,0.63575 z m 21.38574,12.50976 h -2.13281 v 9.65918 q 0,1.90723 -0.84082,2.80957 -0.84082,0.90235 -2.19434,0.90235 -1.45605,0 -2.25586,-0.94336 -0.7998,-0.94336 -0.7998,-2.76856 v -23.13281 q 0,-1.96875 0.88183,-2.85059 0.88184,-0.88183 2.85059,-0.88183 h 9.90527 q 2.05079,0 3.50684,0.18457 1.45605,0.16406 2.625,0.69726 1.41504,0.59473 2.50195,1.70215 1.08692,1.10742 1.64063,2.58399 0.57422,1.45605 0.57422,3.09668 0,3.36328 -1.90723,5.37304 -1.88672,2.00977 -5.74219,2.85059 1.62012,0.86133 3.09668,2.54297 1.47656,1.68164 2.625,3.58886 1.16895,1.88672 1.80469,3.42481 0.65625,1.51758 0.65625,2.0918 0,0.59472 -0.38965,1.18945 -0.36914,0.57422 -1.02539,0.90234 -0.65625,0.34864 -1.51758,0.34864 -1.02539,0 -1.72265,-0.49219 -0.69727,-0.47168 -1.20996,-1.20996 -0.49219,-0.73828 -1.35352,-2.17383 l -2.44043,-4.06055 q -1.3125,-2.23535 -2.3584,-3.4043 -1.02539,-1.16894 -2.0918,-1.5996 -1.0664,-0.43067 -2.68652,-0.43067 z m 3.48633,-12.63281 h -5.61914 v 8.26465 h 5.45508 q 2.19433,0 3.6914,-0.36914 1.49707,-0.38965 2.27637,-1.292 0.79981,-0.92285 0.79981,-2.52246 0,-1.25097 -0.63575,-2.19433 -0.63574,-0.96387 -1.76367,-1.43555 -1.06641,-0.45117 -4.2041,-0.45117 z m 46.38477,16.46777 q 0,2.72754 -1.41504,4.90137 -1.39454,2.17383 -4.10157,3.4043 -2.70703,1.23047 -6.41894,1.23047 -4.4502,0 -7.3418,-1.68165 -2.05078,-1.20996 -3.34277,-3.21972 -1.27149,-2.03028 -1.27149,-3.9375 0,-1.10742 0.75879,-1.88672 0.7793,-0.79981 1.96875,-0.79981 0.96387,0 1.62012,0.61524 0.67676,0.61523 1.14844,1.82519 0.57422,1.43555 1.23047,2.39942 0.67675,0.96387 1.88671,1.59961 1.20997,0.61523 3.17872,0.61523 2.70703,0 4.38867,-1.25097 1.70215,-1.27149 1.70215,-3.15821 0,-1.49707 -0.92286,-2.41992 -0.90234,-0.94336 -2.35839,-1.43555 -1.43555,-0.49218 -3.85547,-1.04589 -3.24024,-0.75879 -5.43457,-1.76368 -2.17383,-1.02539 -3.46582,-2.76855 -1.27149,-1.76367 -1.27149,-4.36817 0,-2.48144 1.35352,-4.40917 1.35351,-1.92774 3.91699,-2.95313 2.56348,-1.0459 6.0293,-1.0459 2.76855,0 4.77832,0.69727 2.03027,0.67676 3.36328,1.82519 1.33301,1.12793 1.94824,2.37891 0.61524,1.25098 0.61524,2.44043 0,1.08691 -0.7793,1.96875 -0.75879,0.86133 -1.90723,0.86133 -1.0459,0 -1.59961,-0.5127 -0.5332,-0.5332 -1.16894,-1.72265 -0.82032,-1.70215 -1.96875,-2.64551 -1.14844,-0.96387 -3.69141,-0.96387 -2.3584,0 -3.81445,1.0459 -1.43555,1.02539 -1.43555,2.48144 0,0.90235 0.49219,1.5586 0.49219,0.65625 1.35351,1.12793 0.86133,0.47168 1.74317,0.73828 0.88183,0.2666 2.91211,0.7793 2.54297,0.59472 4.59375,1.3125 2.07129,0.71777 3.50683,1.74316 1.45606,1.02539 2.25586,2.60449 0.82032,1.5586 0.82032,3.83496 z m 23.3955,-21.55371 q 4.67578,0 8.01856,1.90723 3.36328,1.88672 5.08594,5.39355 1.72265,3.48633 1.72265,8.20313 0,3.48633 -0.94336,6.33691 -0.94336,2.85059 -2.83008,4.94238 -1.88671,2.0918 -4.63476,3.19922 -2.74805,1.10743 -6.2959,1.10743 -3.52734,0 -6.31641,-1.12793 -2.78906,-1.14844 -4.65527,-3.21973 -1.86621,-2.07129 -2.83008,-4.9834 -0.94336,-2.91211 -0.94336,-6.2959 0,-3.46582 0.98438,-6.35742 1.00488,-2.8916 2.8916,-4.92187 1.88672,-2.03028 4.59375,-3.09668 2.70703,-1.08692 6.15234,-1.08692 z m 8.6543,15.46289 q 0,-3.30176 -1.06641,-5.72168 -1.0664,-2.41992 -3.05566,-3.65039 -1.96875,-1.25097 -4.53223,-1.25097 -1.82519,0 -3.38379,0.69726 -1.53808,0.67676 -2.66601,1.98926 -1.10742,1.3125 -1.76367,3.36328 -0.63575,2.03027 -0.63575,4.57324 0,2.56348 0.63575,4.63477 0.65625,2.07129 1.82519,3.44531 1.18945,1.35352 2.70703,2.03027 1.53809,0.67676 3.36328,0.67676 2.33789,0 4.28614,-1.16894 1.96875,-1.16895 3.11718,-3.60938 1.16895,-2.44043 1.16895,-6.00879 z m 24.31836,-11.8125 11.70996,17.71875 v -17.88281 q 0,-1.74316 0.73828,-2.60449 0.75879,-0.88184 2.03027,-0.88184 1.3125,0 2.07129,0.88184 0.75879,0.86133 0.75879,2.60449 v 23.64551 q 0,3.95801 -3.28125,3.95801 -0.82031,0 -1.47656,-0.2461 -0.65625,-0.22558 -1.23047,-0.73828 -0.57422,-0.5127 -1.0664,-1.18945 -0.49219,-0.69727 -0.98438,-1.41504 l -11.42285,-17.51367 v 17.61621 q 0,1.72265 -0.79981,2.60449 -0.7998,0.88184 -2.05078,0.88184 -1.29199,0 -2.07129,-0.88184 -0.77929,-0.90234 -0.77929,-2.60449 v -23.19434 q 0,-1.47656 0.32812,-2.31738 0.38965,-0.92285 1.29199,-1.49707 0.90235,-0.59473 1.94825,-0.59473 0.82031,0 1.39453,0.2666 0.59472,0.2666 1.02539,0.71778 0.45117,0.45117 0.90234,1.16894 0.47168,0.71778 0.96387,1.49707 z m 32.91113,7.56739 h -4.24512 l -1.08691,-5.63965 v -5.06543 h 6.2959 v 5.06543 z m 33.99805,10.33593 q 0,2.72754 -1.41504,4.90137 -1.39453,2.17383 -4.10156,3.4043 -2.70703,1.23047 -6.41895,1.23047 -4.45019,0 -7.34179,-1.68165 -2.05079,-1.20996 -3.34278,-3.21972 -1.27148,-2.03028 -1.27148,-3.9375 0,-1.10742 0.75879,-1.88672 0.77929,-0.79981 1.96875,-0.79981 0.96386,0 1.62011,0.61524 0.67676,0.61523 1.14844,1.82519 0.57422,1.43555 1.23047,2.39942 0.67676,0.96387 1.88672,1.59961 1.20996,0.61523 3.17871,0.61523 2.70703,0 4.38867,-1.25097 1.70215,-1.27149 1.70215,-3.15821 0,-1.49707 -0.92285,-2.41992 -0.90235,-0.94336 -2.3584,-1.43555 -1.43555,-0.49218 -3.85547,-1.04589 -3.24023,-0.75879 -5.43457,-1.76368 -2.17383,-1.02539 -3.46582,-2.76855 -1.27148,-1.76367 -1.27148,-4.36817 0,-2.48144 1.35351,-4.40917 1.35352,-1.92774 3.91699,-2.95313 2.56348,-1.0459 6.0293,-1.0459 2.76856,0 4.77832,0.69727 2.03027,0.67676 3.36328,1.82519 1.33301,1.12793 1.94824,2.37891 0.61524,1.25098 0.61524,2.44043 0,1.08691 -0.7793,1.96875 -0.75879,0.86133 -1.90722,0.86133 -1.0459,0 -1.59961,-0.5127 -0.53321,-0.5332 -1.16895,-1.72265 -0.82031,-1.70215 -1.96875,-2.64551 -1.14844,-0.96387 -3.69141,-0.96387 -2.35839,0 -3.81445,1.0459 -1.43555,1.02539 -1.43555,2.48144 0,0.90235 0.49219,1.5586 0.49219,0.65625 1.35352,1.12793 0.86133,0.47168 1.74316,0.73828 0.88184,0.2666 2.91211,0.7793 2.54297,0.59472 4.59375,1.3125 2.07129,0.71777 3.50684,1.74316 1.45605,1.02539 2.25586,2.60449 0.82031,1.5586 0.82031,3.83496 z"
     id="text5"
     style="font-weight:700;font-size:42px;font-family:'Arial Rounded MT Bold', 'Trebuchet MS', Verdana, Arial, sans-serif;letter-spacing:5;text-anchor:middle"
     aria-label="EMERSON'S" />
  <path
     d="m 399.375,208.22656 v 12.62305 q 0,2.51562 -0.49414,4.04297 -0.49414,1.48242 -1.8418,2.69531 -1.30273,1.21289 -3.36914,2.33594 -5.97461,3.23437 -11.5,4.71679 -5.52539,1.48243 -12.03906,1.48243 -7.5918,0 -13.83594,-2.33594 -6.24414,-2.33594 -10.64648,-6.7832 -4.40235,-4.44727 -6.78321,-10.78125 -2.33593,-6.33399 -2.33593,-14.15039 0,-7.68165 2.29101,-14.06055 2.29102,-6.37891 6.73828,-10.82617 4.44727,-4.44727 10.82618,-6.78321 6.3789,-2.38086 14.46484,-2.38086 6.64844,0 11.76953,1.79688 5.12109,1.75195 8.31055,4.44726 3.18945,2.69532 4.80664,5.70508 1.61719,3.00977 1.61719,5.34571 0,2.51562 -1.88672,4.3125 -1.8418,1.75195 -4.44727,1.75195 -1.4375,0 -2.78516,-0.67383 -1.30273,-0.67383 -2.20117,-1.88672 -2.4707,-3.86328 -4.17773,-5.83984 -1.70703,-1.97656 -4.62695,-3.32422 -2.875,-1.34766 -7.36719,-1.34766 -4.62696,0 -8.26563,1.61719 -3.63867,1.57227 -6.24414,4.62695 -2.56054,3.00977 -3.95312,7.41211 -1.34766,4.40235 -1.34766,9.74805 0,11.58984 5.30078,17.83398 5.34571,6.24415 14.86914,6.24415 4.62696,0 8.66992,-1.2129 4.0879,-1.21289 8.26563,-3.45898 v -10.69141 h -10.33203 q -3.72852,0 -5.66016,-1.12304 -1.88672,-1.12305 -1.88672,-3.81836 0,-2.20117 1.57227,-3.63867 1.61719,-1.4375 4.35742,-1.4375 h 15.13867 q 2.78516,0 4.7168,0.49414 1.93164,0.49414 3.09961,2.20117 1.21289,1.70703 1.21289,5.12109 z m 53.3457,19.31641 -3.14453,-8.26563 h -26.77344 l -3.14453,8.44532 q -1.84179,4.9414 -3.14453,6.69336 -1.30273,1.70703 -4.26758,1.70703 -2.51562,0 -4.44726,-1.8418 -1.93164,-1.8418 -1.93164,-4.17773 0,-1.34766 0.44922,-2.78516 0.44921,-1.4375 1.48242,-3.99805 l 16.8457,-42.76562 q 0.71875,-1.8418 1.70703,-4.40235 1.03321,-2.60547 2.15625,-4.3125 1.16797,-1.70703 3.00977,-2.74023 1.88672,-1.07813 4.62695,-1.07813 2.78516,0 4.62695,1.07813 1.88672,1.0332 3.00977,2.69531 1.16797,1.66211 1.93164,3.59375 0.80859,1.88672 2.02148,5.07617 l 17.20508,42.4961 q 2.02149,4.85156 2.02149,7.05273 0,2.29102 -1.93164,4.22266 -1.88672,1.88672 -4.58203,1.88672 -1.57227,0 -2.69532,-0.58399 -1.12304,-0.53906 -1.88672,-1.48242 -0.76367,-0.98828 -1.66211,-2.96484 -0.85351,-2.02149 -1.48242,-3.54883 z m -26.41406,-18.2832 h 19.67578 l -9.92773,-27.17774 z m 74.68359,15.8125 -10.55664,-41.95704 v 45.46094 q 0,3.77344 -1.70703,5.66016 -1.66211,1.88672 -4.44726,1.88672 -2.69532,0 -4.40235,-1.8418 -1.70703,-1.88672 -1.70703,-5.70508 V 176.4668 q 0,-4.3125 2.2461,-5.79493 2.24609,-1.52734 6.06445,-1.52734 h 4.13281 q 3.72852,0 5.39063,0.67383 1.70703,0.67383 2.51562,2.42578 0.80859,1.75195 1.8418,5.70508 l 9.56836,36.07226 9.56836,-36.07226 q 1.0332,-3.95313 1.84179,-5.70508 0.8086,-1.75195 2.47071,-2.42578 1.70703,-0.67383 5.43554,-0.67383 h 4.13282 q 3.81836,0 6.06445,1.52734 2.24609,1.48243 2.24609,5.79493 v 52.10937 q 0,3.77344 -1.70703,5.66016 -1.66211,1.88672 -4.49219,1.88672 -2.65039,0 -4.35742,-1.88672 -1.70703,-1.88672 -1.70703,-5.66016 v -45.46094 l -10.55664,41.95704 q -1.0332,4.08789 -1.70703,6.01953 -0.62891,1.88672 -2.38086,3.45898 -1.75195,1.57227 -4.85156,1.57227 -2.33594,0 -3.95313,-1.03321 -1.61719,-0.98828 -2.51562,-2.56054 -0.89844,-1.57227 -1.4375,-3.45899 -0.49414,-1.93164 -1.03321,-3.99804 z m 99.79493,-45.64063 h -30.05274 v 16.17188 h 27.67188 q 3.05468,0 4.53711,1.39257 1.52734,1.34766 1.52734,3.59375 0,2.2461 -1.48242,3.6836 -1.48242,1.39258 -4.58203,1.39258 h -27.67188 v 18.73242 h 31.08594 q 3.14453,0 4.7168,1.48242 1.61718,1.4375 1.61718,3.86328 0,2.33594 -1.61718,3.81836 Q 604.96289,235 601.81836,235 h -36.25195 q -4.35743,0 -6.28907,-1.93164 -1.88672,-1.93164 -1.88672,-6.24414 v -49.50391 q 0,-2.875 0.85352,-4.67187 0.85352,-1.8418 2.65039,-2.65039 1.8418,-0.85352 4.67188,-0.85352 h 35.21875 q 3.18945,0 4.71679,1.4375 1.57227,1.39258 1.57227,3.68359 0,2.33594 -1.57227,3.77344 -1.52734,1.39258 -4.71679,1.39258 z m 105.11914,28.79492 v 12.62305 q 0,2.51562 -0.49414,4.04297 -0.49414,1.48242 -1.8418,2.69531 -1.30274,1.21289 -3.36914,2.33594 -5.97461,3.23437 -11.5,4.71679 -5.52539,1.48243 -12.03906,1.48243 -7.5918,0 -13.83594,-2.33594 -6.24414,-2.33594 -10.64649,-6.7832 -4.40234,-4.44727 -6.7832,-10.78125 -2.33594,-6.33399 -2.33594,-14.15039 0,-7.68165 2.29102,-14.06055 2.29101,-6.37891 6.73828,-10.82617 4.44727,-4.44727 10.82617,-6.78321 6.37891,-2.38086 14.46485,-2.38086 6.64843,0 11.76953,1.79688 5.12109,1.75195 8.31054,4.44726 3.18946,2.69532 4.80664,5.70508 1.61719,3.00977 1.61719,5.34571 0,2.51562 -1.88672,4.3125 -1.84179,1.75195 -4.44726,1.75195 -1.4375,0 -2.78516,-0.67383 -1.30273,-0.67383 -2.20117,-1.88672 -2.4707,-3.86328 -4.17773,-5.83984 -1.70704,-1.97656 -4.62696,-3.32422 -2.875,-1.34766 -7.36719,-1.34766 -4.62695,0 -8.26562,1.61719 -3.63867,1.57227 -6.24414,4.62695 -2.56055,3.00977 -3.95313,7.41211 -1.34765,4.40235 -1.34765,9.74805 0,11.58984 5.30078,17.83398 5.3457,6.24415 14.86914,6.24415 4.62695,0 8.66992,-1.2129 4.08789,-1.21289 8.26563,-3.45898 v -10.69141 h -10.33203 q -3.72852,0 -5.66016,-1.12304 -1.88672,-1.12305 -1.88672,-3.81836 0,-2.20117 1.57227,-3.63867 1.61718,-1.4375 4.35742,-1.4375 H 696.875 q 2.78516,0 4.7168,0.49414 1.93164,0.49414 3.09961,2.20117 1.21289,1.70703 1.21289,5.12109 z m 15.25195,19.76563 v -51.88477 q 0,-4.04297 1.8418,-6.06445 1.84179,-2.02149 4.76172,-2.02149 3.00976,0 4.85156,2.02149 1.88672,1.97656 1.88672,6.06445 v 51.88477 q 0,4.08789 -1.88672,6.10937 -1.8418,2.02149 -4.85156,2.02149 -2.875,0 -4.76172,-2.02149 -1.8418,-2.0664 -1.8418,-6.10937 z m 48.17969,-21.15821 h -4.67188 v 21.15821 q 0,4.17773 -1.84179,6.15429 -1.8418,1.97657 -4.80665,1.97657 -3.18945,0 -4.9414,-2.06641 -1.75195,-2.06641 -1.75195,-6.06445 v -50.67188 q 0,-4.3125 1.93164,-6.24414 1.93164,-1.93164 6.24414,-1.93164 h 21.69726 q 4.49219,0 7.68164,0.4043 3.18946,0.35937 5.75,1.52734 3.09961,1.30274 5.48047,3.72852 2.38086,2.42578 3.59375,5.66015 1.25781,3.18946 1.25781,6.78321 0,7.36718 -4.17773,11.76953 -4.13281,4.40234 -12.57813,6.24414 3.54883,1.88672 6.78321,5.57031 3.23437,3.68359 5.75,7.86133 2.56054,4.13281 3.95312,7.50195 1.4375,3.32422 1.4375,4.58203 0,1.30274 -0.85351,2.60547 -0.8086,1.25781 -2.2461,1.97656 -1.4375,0.76368 -3.32422,0.76368 -2.24609,0 -3.77343,-1.07813 -1.52735,-1.0332 -2.65039,-2.65039 -1.07813,-1.61719 -2.96485,-4.76172 l -5.3457,-8.89453 q -2.875,-4.89648 -5.16602,-7.45703 -2.24609,-2.56055 -4.58203,-3.50391 -2.33593,-0.94336 -5.88476,-0.94336 z m 7.63672,-27.67187 h -12.3086 v 18.10351 h 11.94922 q 4.80664,0 8.08594,-0.80859 3.2793,-0.85351 4.98633,-2.83008 1.75195,-2.02148 1.75195,-5.52539 0,-2.74023 -1.39258,-4.80664 -1.39258,-2.11133 -3.86328,-3.14453 -2.33594,-0.98828 -9.20898,-0.98828 z m 55.68164,-3.05469 v 47.93164 h 27.04297 q 3.23437,0 4.9414,1.57227 1.75195,1.57226 1.75195,3.95312 0,2.42578 -1.70703,3.95313 Q 862.97656,235 859.69727,235 h -32.20899 q -4.35742,0 -6.28906,-1.93164 -1.88672,-1.93164 -1.88672,-6.24414 v -50.7168 q 0,-4.04297 1.79687,-6.06445 1.8418,-2.02149 4.80665,-2.02149 3.00976,0 4.85156,2.02149 1.88672,1.97656 1.88672,6.06445 z"
     id="text6"
     style="font-weight:900;font-size:92px;font-family:'Arial Rounded MT Bold', 'Trebuchet MS', Verdana, Arial, sans-serif;letter-spacing:2;text-anchor:middle"
     aria-label="GAME GIRL" />
  <path
     d="M500 268 H700"
     stroke="black"
     stroke-width="10"
     stroke-linecap="round"
     id="path6" />
</svg>
